# xmcd
#
# Track frame offsets:
#	150
#	14613
#	34563
#	50463
#	62838
#	79788
#	95388
#	109638
#	127638
#	147213
#	162138
#	180063
#	197613
#	213813
#	225813
#
# Disc length: 3197 seconds
#
# Revision: 1
# Processed by: cddbd v1.5.2PL0 Copyright (c) Steve Scherf et al.
# Submitted via: audiograbber 1.83.01
#
DISCID=a90c7b0f
DTITLE=Die Bergkameraden - Montana Libre
DYEAR=2009
DGENRE=Folklore
TTITLE0=Meine Heimat
TTITLE1=Weites Land
TTITLE2=Mantana Libre
TTITLE3=Es war ein Leuchten
TTITLE4=Frei wie ein Adler im Wind
TTITLE5=Wenn der Himmel brennt
TTITLE6=Berg Heil
TTITLE7=Mein Berg, mein Glück
TTITLE8=Das Lied der Erde
TTITLE9=Wir ziehen alle am gleichen Strang
TTITLE10=Ein Gruß an die Sonne
TTITLE11=Bergkameraden
TTITLE12=Gute Nacht, lieber Tag
TTITLE13=Die Zeit war schön
TTITLE14=Ich träume von der Heimat
EXTD=
EXTT0=
EXTT1=
EXTT2=
EXTT3=
EXTT4=
EXTT5=
EXTT6=
EXTT7=
EXTT8=
EXTT9=
EXTT10=
EXTT11=
EXTT12=
EXTT13=
EXTT14=
PLAYORDER=
